<svg width="92" height="90" viewBox="0 0 92 90" fill="none" xmlns="http://www.w3.org/2000/svg">
<path d="M2 28.572V78.786L16.3292 87M2 28.572L16.3292 19.583L32.0602 28.572M2 28.572L45.9221 53.8339L60.8743 45.2645M16.3292 87V53.8339L31.1257 62.203M16.3292 87L31.1257 78.786V62.203M75.2035 87V53.8339L60.5628 62.203M75.2035 87L90 78.786V28.572M75.2035 87L60.8743 78.786L60.5628 62.203M90 28.572L45.9221 3L32.0602 10.9041M90 28.572L75.4372 36.9182M32.0602 10.9041L45.9221 19.583L32.0602 28.572M32.0602 10.9041V28.572M60.8743 45.2645L45.9221 36.476L60.2513 28.572L75.4372 36.9182M60.8743 45.2645L75.4372 36.9182M31.1257 62.203L45.9221 70.572L60.5628 62.203" stroke="white" stroke-width="4" stroke-linecap="round"/>
</svg>
